<svg width="20" height="20" viewBox="0 0 20 20" fill="none" xmlns="http://www.w3.org/2000/svg">
<path d="M18.0957 7.61876C18.2207 7.61879 18.3446 7.59418 18.4602 7.54633C18.5757 7.49848 18.6807 7.42832 18.7692 7.33988C18.8576 7.25143 18.9278 7.14643 18.9756 7.03086C19.0235 6.9153 19.0481 6.79144 19.0481 6.66636V3.80915C19.0481 3.60931 18.9853 3.41452 18.8684 3.25241C18.7516 3.09031 18.5866 2.96912 18.397 2.90604L9.82538 0.0488291C9.62976 -0.0162764 9.41831 -0.0162764 9.22268 0.0488291L0.651053 2.90604C0.461433 2.96912 0.296491 3.09031 0.179629 3.25241C0.0627664 3.41452 -8.2032e-05 3.60931 8.03582e-08 3.80915V6.66636C-3.24533e-05 6.79144 0.0245801 6.9153 0.0724313 7.03086C0.120283 7.14643 0.190435 7.25143 0.27888 7.33988C0.367325 7.42832 0.47233 7.49848 0.587896 7.54633C0.703461 7.59418 0.827323 7.61879 0.952403 7.61876H1.90481V14.4611C1.3493 14.6568 0.867987 15.0196 0.526934 15.4997C0.18588 15.9799 0.00181192 16.5538 8.03582e-08 17.1428V19.0476C-3.24533e-05 19.1727 0.0245801 19.2965 0.0724313 19.4121C0.120283 19.5277 0.190435 19.6327 0.27888 19.7211C0.367325 19.8096 0.47233 19.8797 0.587896 19.9276C0.703461 19.9754 0.827323 20 0.952403 20H18.0957C18.2207 20 18.3446 19.9754 18.4602 19.9276C18.5757 19.8797 18.6807 19.8096 18.7692 19.7211C18.8576 19.6327 18.9278 19.5277 18.9756 19.4121C19.0235 19.2965 19.0481 19.1727 19.0481 19.0476V17.1428C19.0463 16.5538 18.8622 15.9799 18.5211 15.4997C18.1801 15.0196 17.6988 14.6568 17.1433 14.4611V7.61876H18.0957ZM17.1433 18.0952H1.90481V17.1428C1.90506 16.8903 2.00548 16.6482 2.18404 16.4696C2.36259 16.2911 2.60469 16.1906 2.85721 16.1904H16.1909C16.4434 16.1906 16.6855 16.2911 16.864 16.4696C17.0426 16.6482 17.143 16.8903 17.1433 17.1428V18.0952ZM3.80961 14.2856V7.61876H5.71442V14.2856H3.80961ZM7.61923 14.2856V7.61876H11.4288V14.2856H7.61923ZM13.3336 14.2856V7.61876H15.2385V14.2856H13.3336ZM1.90481 5.71395V4.49554L9.52403 1.95548L17.1433 4.49554V5.71395H1.90481Z" fill="black"/>
<path d="M18.0957 7.61876C18.2207 7.61879 18.3446 7.59418 18.4602 7.54633C18.5757 7.49848 18.6807 7.42832 18.7692 7.33988C18.8576 7.25143 18.9278 7.14643 18.9756 7.03086C19.0235 6.9153 19.0481 6.79144 19.0481 6.66636V3.80915C19.0481 3.60931 18.9853 3.41452 18.8684 3.25241C18.7516 3.09031 18.5866 2.96912 18.397 2.90604L9.82538 0.0488291C9.62976 -0.0162764 9.41831 -0.0162764 9.22268 0.0488291L0.651053 2.90604C0.461433 2.96912 0.296491 3.09031 0.179629 3.25241C0.0627664 3.41452 -8.2032e-05 3.60931 8.03582e-08 3.80915V6.66636C-3.24533e-05 6.79144 0.0245801 6.9153 0.0724313 7.03086C0.120283 7.14643 0.190435 7.25143 0.27888 7.33988C0.367325 7.42832 0.47233 7.49848 0.587896 7.54633C0.703461 7.59418 0.827323 7.61879 0.952403 7.61876H1.90481V14.4611C1.3493 14.6568 0.867987 15.0196 0.526934 15.4997C0.18588 15.9799 0.00181192 16.5538 8.03582e-08 17.1428V19.0476C-3.24533e-05 19.1727 0.0245801 19.2965 0.0724313 19.4121C0.120283 19.5277 0.190435 19.6327 0.27888 19.7211C0.367325 19.8096 0.47233 19.8797 0.587896 19.9276C0.703461 19.9754 0.827323 20 0.952403 20H18.0957C18.2207 20 18.3446 19.9754 18.4602 19.9276C18.5757 19.8797 18.6807 19.8096 18.7692 19.7211C18.8576 19.6327 18.9278 19.5277 18.9756 19.4121C19.0235 19.2965 19.0481 19.1727 19.0481 19.0476V17.1428C19.0463 16.5538 18.8622 15.9799 18.5211 15.4997C18.1801 15.0196 17.6988 14.6568 17.1433 14.4611V7.61876H18.0957ZM17.1433 18.0952H1.90481V17.1428C1.90506 16.8903 2.00548 16.6482 2.18404 16.4696C2.36259 16.2911 2.60469 16.1906 2.85721 16.1904H16.1909C16.4434 16.1906 16.6855 16.2911 16.864 16.4696C17.0426 16.6482 17.143 16.8903 17.1433 17.1428V18.0952ZM3.80961 14.2856V7.61876H5.71442V14.2856H3.80961ZM7.61923 14.2856V7.61876H11.4288V14.2856H7.61923ZM13.3336 14.2856V7.61876H15.2385V14.2856H13.3336ZM1.90481 5.71395V4.49554L9.52403 1.95548L17.1433 4.49554V5.71395H1.90481Z" fill="url(#paint0_linear_421_307)"/>
<defs>
<linearGradient id="paint0_linear_421_307" x1="9.52403" y1="-0.688128" x2="9.52403" y2="20.6881" gradientUnits="userSpaceOnUse">
<stop stop-color="#8B2AB2"/>
<stop offset="1" stop-color="#9146FF"/>
</linearGradient>
</defs>
</svg>
