<svg width="22" height="22" viewBox="0 0 22 22" fill="none" xmlns="http://www.w3.org/2000/svg">
<path d="M13.2 6.6H14.3C14.5917 6.6 14.8715 6.48411 15.0778 6.27782C15.2841 6.07153 15.4 5.79174 15.4 5.5C15.4 5.20826 15.2841 4.92847 15.0778 4.72218C14.8715 4.51589 14.5917 4.4 14.3 4.4H13.2C12.9083 4.4 12.6285 4.51589 12.4222 4.72218C12.2159 4.92847 12.1 5.20826 12.1 5.5C12.1 5.79174 12.2159 6.07153 12.4222 6.27782C12.6285 6.48411 12.9083 6.6 13.2 6.6ZM13.2 11H14.3C14.5917 11 14.8715 10.8841 15.0778 10.6778C15.2841 10.4715 15.4 10.1917 15.4 9.9C15.4 9.60826 15.2841 9.32847 15.0778 9.12218C14.8715 8.91589 14.5917 8.8 14.3 8.8H13.2C12.9083 8.8 12.6285 8.91589 12.4222 9.12218C12.2159 9.32847 12.1 9.60826 12.1 9.9C12.1 10.1917 12.2159 10.4715 12.4222 10.6778C12.6285 10.8841 12.9083 11 13.2 11ZM7.7 6.6H8.8C9.09174 6.6 9.37153 6.48411 9.57782 6.27782C9.78411 6.07153 9.9 5.79174 9.9 5.5C9.9 5.20826 9.78411 4.92847 9.57782 4.72218C9.37153 4.51589 9.09174 4.4 8.8 4.4H7.7C7.40826 4.4 7.12847 4.51589 6.92218 4.72218C6.71589 4.92847 6.6 5.20826 6.6 5.5C6.6 5.79174 6.71589 6.07153 6.92218 6.27782C7.12847 6.48411 7.40826 6.6 7.7 6.6ZM7.7 11H8.8C9.09174 11 9.37153 10.8841 9.57782 10.6778C9.78411 10.4715 9.9 10.1917 9.9 9.9C9.9 9.60826 9.78411 9.32847 9.57782 9.12218C9.37153 8.91589 9.09174 8.8 8.8 8.8H7.7C7.40826 8.8 7.12847 8.91589 6.92218 9.12218C6.71589 9.32847 6.6 9.60826 6.6 9.9C6.6 10.1917 6.71589 10.4715 6.92218 10.6778C7.12847 10.8841 7.40826 11 7.7 11ZM20.9 19.8H19.8V1.1C19.8 0.808262 19.6841 0.528472 19.4778 0.322183C19.2715 0.115892 18.9917 0 18.7 0H3.3C3.00826 0 2.72847 0.115892 2.52218 0.322183C2.31589 0.528472 2.2 0.808262 2.2 1.1V19.8H1.1C0.808262 19.8 0.528472 19.9159 0.322183 20.1222C0.115892 20.3285 0 20.6083 0 20.9C0 21.1917 0.115892 21.4715 0.322183 21.6778C0.528472 21.8841 0.808262 22 1.1 22H20.9C21.1917 22 21.4715 21.8841 21.6778 21.6778C21.8841 21.4715 22 21.1917 22 20.9C22 20.6083 21.8841 20.3285 21.6778 20.1222C21.4715 19.9159 21.1917 19.8 20.9 19.8ZM12.1 19.8H9.9V15.4H12.1V19.8ZM17.6 19.8H14.3V14.3C14.3 14.0083 14.1841 13.7285 13.9778 13.5222C13.7715 13.3159 13.4917 13.2 13.2 13.2H8.8C8.50826 13.2 8.22847 13.3159 8.02218 13.5222C7.81589 13.7285 7.7 14.0083 7.7 14.3V19.8H4.4V2.2H17.6V19.8Z" fill="black"/>
<path d="M13.2 6.6H14.3C14.5917 6.6 14.8715 6.48411 15.0778 6.27782C15.2841 6.07153 15.4 5.79174 15.4 5.5C15.4 5.20826 15.2841 4.92847 15.0778 4.72218C14.8715 4.51589 14.5917 4.4 14.3 4.4H13.2C12.9083 4.4 12.6285 4.51589 12.4222 4.72218C12.2159 4.92847 12.1 5.20826 12.1 5.5C12.1 5.79174 12.2159 6.07153 12.4222 6.27782C12.6285 6.48411 12.9083 6.6 13.2 6.6ZM13.2 11H14.3C14.5917 11 14.8715 10.8841 15.0778 10.6778C15.2841 10.4715 15.4 10.1917 15.4 9.9C15.4 9.60826 15.2841 9.32847 15.0778 9.12218C14.8715 8.91589 14.5917 8.8 14.3 8.8H13.2C12.9083 8.8 12.6285 8.91589 12.4222 9.12218C12.2159 9.32847 12.1 9.60826 12.1 9.9C12.1 10.1917 12.2159 10.4715 12.4222 10.6778C12.6285 10.8841 12.9083 11 13.2 11ZM7.7 6.6H8.8C9.09174 6.6 9.37153 6.48411 9.57782 6.27782C9.78411 6.07153 9.9 5.79174 9.9 5.5C9.9 5.20826 9.78411 4.92847 9.57782 4.72218C9.37153 4.51589 9.09174 4.4 8.8 4.4H7.7C7.40826 4.4 7.12847 4.51589 6.92218 4.72218C6.71589 4.92847 6.6 5.20826 6.6 5.5C6.6 5.79174 6.71589 6.07153 6.92218 6.27782C7.12847 6.48411 7.40826 6.6 7.7 6.6ZM7.7 11H8.8C9.09174 11 9.37153 10.8841 9.57782 10.6778C9.78411 10.4715 9.9 10.1917 9.9 9.9C9.9 9.60826 9.78411 9.32847 9.57782 9.12218C9.37153 8.91589 9.09174 8.8 8.8 8.8H7.7C7.40826 8.8 7.12847 8.91589 6.92218 9.12218C6.71589 9.32847 6.6 9.60826 6.6 9.9C6.6 10.1917 6.71589 10.4715 6.92218 10.6778C7.12847 10.8841 7.40826 11 7.7 11ZM20.9 19.8H19.8V1.1C19.8 0.808262 19.6841 0.528472 19.4778 0.322183C19.2715 0.115892 18.9917 0 18.7 0H3.3C3.00826 0 2.72847 0.115892 2.52218 0.322183C2.31589 0.528472 2.2 0.808262 2.2 1.1V19.8H1.1C0.808262 19.8 0.528472 19.9159 0.322183 20.1222C0.115892 20.3285 0 20.6083 0 20.9C0 21.1917 0.115892 21.4715 0.322183 21.6778C0.528472 21.8841 0.808262 22 1.1 22H20.9C21.1917 22 21.4715 21.8841 21.6778 21.6778C21.8841 21.4715 22 21.1917 22 20.9C22 20.6083 21.8841 20.3285 21.6778 20.1222C21.4715 19.9159 21.1917 19.8 20.9 19.8ZM12.1 19.8H9.9V15.4H12.1V19.8ZM17.6 19.8H14.3V14.3C14.3 14.0083 14.1841 13.7285 13.9778 13.5222C13.7715 13.3159 13.4917 13.2 13.2 13.2H8.8C8.50826 13.2 8.22847 13.3159 8.02218 13.5222C7.81589 13.7285 7.7 14.0083 7.7 14.3V19.8H4.4V2.2H17.6V19.8Z" fill="url(#paint0_linear_421_303)"/>
<defs>
<linearGradient id="paint0_linear_421_303" x1="11" y1="-0.75694" x2="11" y2="22.7569" gradientUnits="userSpaceOnUse">
<stop stop-color="#8B2AB2"/>
<stop offset="1" stop-color="#9146FF"/>
</linearGradient>
</defs>
</svg>
