<svg width="22" height="22" viewBox="0 0 22 22" fill="none" xmlns="http://www.w3.org/2000/svg">
<path d="M14.2998 7.69989H12.0998V5.49992C12.0998 5.20819 11.9839 4.9284 11.7777 4.72212C11.5714 4.51583 11.2916 4.39994 10.9998 4.39994C10.7081 4.39994 10.4283 4.51583 10.222 4.72212C10.0158 4.9284 9.89986 5.20819 9.89986 5.49992V7.69989H7.69989C7.40816 7.69989 7.12837 7.81578 6.92209 8.02207C6.7158 8.22836 6.59991 8.50814 6.59991 8.79988C6.59991 9.09161 6.7158 9.3714 6.92209 9.57768C7.12837 9.78397 7.40816 9.89986 7.69989 9.89986H9.89986V12.0998C9.89986 12.3916 10.0158 12.6714 10.222 12.8776C10.4283 13.0839 10.7081 13.1998 10.9998 13.1998C11.2916 13.1998 11.5714 13.0839 11.7777 12.8776C11.9839 12.6714 12.0998 12.3916 12.0998 12.0998V9.89986H14.2998C14.5915 9.89986 14.8713 9.78397 15.0776 9.57768C15.2839 9.3714 15.3998 9.09161 15.3998 8.79988C15.3998 8.50814 15.2839 8.22836 15.0776 8.02207C14.8713 7.81578 14.5915 7.69989 14.2998 7.69989ZM18.6997 0H3.29995C2.42475 0 1.5854 0.347673 0.966534 0.966534C0.347673 1.5854 0 2.42475 0 3.29995V14.2998C0 15.175 0.347673 16.0144 0.966534 16.6332C1.5854 17.2521 2.42475 17.5998 3.29995 17.5998H16.0488L20.1187 21.6807C20.2215 21.7826 20.3434 21.8633 20.4774 21.918C20.6114 21.9728 20.7549 22.0005 20.8997 21.9997C21.044 22.0034 21.1872 21.9733 21.3177 21.9117C21.5186 21.8292 21.6905 21.689 21.8119 21.5089C21.9333 21.3289 21.9986 21.1169 21.9997 20.8997V3.29995C21.9997 2.42475 21.652 1.5854 21.0332 0.966534C20.4143 0.347673 19.5749 0 18.6997 0ZM19.7997 18.2487L17.2808 15.7188C17.178 15.6168 17.0561 15.5362 16.9221 15.4814C16.788 15.4267 16.6445 15.3989 16.4998 15.3998H3.29995C3.00822 15.3998 2.72844 15.2839 2.52215 15.0776C2.31586 14.8713 2.19997 14.5915 2.19997 14.2998V3.29995C2.19997 3.00822 2.31586 2.72843 2.52215 2.52215C2.72844 2.31586 3.00822 2.19997 3.29995 2.19997H18.6997C18.9915 2.19997 19.2713 2.31586 19.4775 2.52215C19.6838 2.72843 19.7997 3.00822 19.7997 3.29995V18.2487Z" fill="black"/>
<path d="M14.2998 7.69989H12.0998V5.49992C12.0998 5.20819 11.9839 4.9284 11.7777 4.72212C11.5714 4.51583 11.2916 4.39994 10.9998 4.39994C10.7081 4.39994 10.4283 4.51583 10.222 4.72212C10.0158 4.9284 9.89986 5.20819 9.89986 5.49992V7.69989H7.69989C7.40816 7.69989 7.12837 7.81578 6.92209 8.02207C6.7158 8.22836 6.59991 8.50814 6.59991 8.79988C6.59991 9.09161 6.7158 9.3714 6.92209 9.57768C7.12837 9.78397 7.40816 9.89986 7.69989 9.89986H9.89986V12.0998C9.89986 12.3916 10.0158 12.6714 10.222 12.8776C10.4283 13.0839 10.7081 13.1998 10.9998 13.1998C11.2916 13.1998 11.5714 13.0839 11.7777 12.8776C11.9839 12.6714 12.0998 12.3916 12.0998 12.0998V9.89986H14.2998C14.5915 9.89986 14.8713 9.78397 15.0776 9.57768C15.2839 9.3714 15.3998 9.09161 15.3998 8.79988C15.3998 8.50814 15.2839 8.22836 15.0776 8.02207C14.8713 7.81578 14.5915 7.69989 14.2998 7.69989ZM18.6997 0H3.29995C2.42475 0 1.5854 0.347673 0.966534 0.966534C0.347673 1.5854 0 2.42475 0 3.29995V14.2998C0 15.175 0.347673 16.0144 0.966534 16.6332C1.5854 17.2521 2.42475 17.5998 3.29995 17.5998H16.0488L20.1187 21.6807C20.2215 21.7826 20.3434 21.8633 20.4774 21.918C20.6114 21.9728 20.7549 22.0005 20.8997 21.9997C21.044 22.0034 21.1872 21.9733 21.3177 21.9117C21.5186 21.8292 21.6905 21.689 21.8119 21.5089C21.9333 21.3289 21.9986 21.1169 21.9997 20.8997V3.29995C21.9997 2.42475 21.652 1.5854 21.0332 0.966534C20.4143 0.347673 19.5749 0 18.6997 0ZM19.7997 18.2487L17.2808 15.7188C17.178 15.6168 17.0561 15.5362 16.9221 15.4814C16.788 15.4267 16.6445 15.3989 16.4998 15.3998H3.29995C3.00822 15.3998 2.72844 15.2839 2.52215 15.0776C2.31586 14.8713 2.19997 14.5915 2.19997 14.2998V3.29995C2.19997 3.00822 2.31586 2.72843 2.52215 2.52215C2.72844 2.31586 3.00822 2.19997 3.29995 2.19997H18.6997C18.9915 2.19997 19.2713 2.31586 19.4775 2.52215C19.6838 2.72843 19.7997 3.00822 19.7997 3.29995V18.2487Z" fill="url(#paint0_linear_421_300)"/>
<defs>
<linearGradient id="paint0_linear_421_300" x1="10.9998" y1="-0.75694" x2="10.9998" y2="22.7569" gradientUnits="userSpaceOnUse">
<stop stop-color="#8B2AB2"/>
<stop offset="1" stop-color="#9146FF"/>
</linearGradient>
</defs>
</svg>
