<svg width="21" height="22" viewBox="0 0 21 22" fill="none" xmlns="http://www.w3.org/2000/svg">
<path d="M18.8782 8.54722V8.36897C18.8846 6.58536 18.3187 4.84674 17.2637 3.40859C16.2087 1.97045 14.7202 0.908629 13.0169 0.379162H12.954C12.0744 0.110983 11.1578 -0.0164143 10.2383 0.00169077C8.04883 0.121844 5.9877 1.07303 4.47561 2.66111C2.96352 4.24919 2.11447 6.35445 2.10174 8.54722C1.48731 8.76336 0.955129 9.16491 0.578659 9.69643C0.20219 10.2279 0 10.8632 0 11.5146C0 12.1659 0.20219 12.8012 0.578659 13.3327C0.955129 13.8642 1.48731 14.2658 2.10174 14.4819C2.3177 16.5525 3.29593 18.4689 4.84624 19.8583C6.39656 21.2478 8.40817 22.0111 10.49 21.9999H10.7312C12.7443 21.9024 14.6578 21.0948 16.132 19.7205C17.6062 18.3461 18.5458 16.4938 18.7839 14.4924C19.4055 14.2885 19.9481 13.8958 20.3361 13.369C20.7242 12.8422 20.9383 12.2076 20.9486 11.5534C20.959 10.8993 20.7652 10.2581 20.3941 9.7193C20.023 9.18047 19.4931 8.77077 18.8782 8.54722ZM10.6787 19.9028C9.16087 19.9467 7.67835 19.4402 6.50473 18.4766C5.33112 17.513 4.54562 16.1575 4.29317 14.6602H16.6344C16.3785 16.0777 15.6508 17.367 14.5696 18.3188C13.4885 19.2705 12.1172 19.8288 10.6787 19.9028ZM17.8297 12.5631H3.15027C2.87218 12.5631 2.60548 12.4526 2.40885 12.256C2.21221 12.0594 2.10174 11.7927 2.10174 11.5146C2.10174 11.2365 2.21221 10.9698 2.40885 10.7731C2.60548 10.5765 2.87218 10.466 3.15027 10.466H5.24733C5.52542 10.466 5.79212 10.3556 5.98876 10.1589C6.18539 9.96229 6.29586 9.69559 6.29586 9.4175C6.29586 9.13941 6.18539 8.87272 5.98876 8.67608C5.79212 8.47944 5.52542 8.36897 5.24733 8.36897H4.1988C4.24574 7.28124 4.55663 6.22125 5.10465 5.28049C5.65267 4.33972 6.42136 3.54642 7.3444 2.96903V6.27191C7.3444 6.55 7.45487 6.81669 7.6515 7.01333C7.84814 7.20997 8.11484 7.32044 8.39293 7.32044C8.67101 7.32044 8.93771 7.20997 9.13435 7.01333C9.33099 6.81669 9.44146 6.55 9.44146 6.27191V2.17215C9.72606 2.1246 10.0131 2.0931 10.3013 2.07778H10.49C10.8414 2.08273 11.1919 2.11428 11.5385 2.17215V6.27191C11.5385 6.55 11.649 6.81669 11.8456 7.01333C12.0423 7.20997 12.309 7.32044 12.5871 7.32044C12.8651 7.32044 13.1318 7.20997 13.3285 7.01333C13.5251 6.81669 13.6356 6.55 13.6356 6.27191V2.93758C14.0804 3.19512 14.4953 3.50106 14.8729 3.8498C15.4774 4.43687 15.9578 5.13941 16.2856 5.91572C16.6135 6.69203 16.782 7.52629 16.7812 8.36897H15.7326C15.4546 8.36897 15.1879 8.47944 14.9912 8.67608C14.7946 8.87272 14.6841 9.13941 14.6841 9.4175C14.6841 9.69559 14.7946 9.96229 14.9912 10.1589C15.1879 10.3556 15.4546 10.466 15.7326 10.466H17.8297C18.1078 10.466 18.3745 10.5765 18.5711 10.7731C18.7678 10.9698 18.8782 11.2365 18.8782 11.5146C18.8782 11.7927 18.7678 12.0594 18.5711 12.256C18.3745 12.4526 18.1078 12.5631 17.8297 12.5631Z" fill="black"/>
<path d="M18.8782 8.54722V8.36897C18.8846 6.58536 18.3187 4.84674 17.2637 3.40859C16.2087 1.97045 14.7202 0.908629 13.0169 0.379162H12.954C12.0744 0.110983 11.1578 -0.0164143 10.2383 0.00169077C8.04883 0.121844 5.9877 1.07303 4.47561 2.66111C2.96352 4.24919 2.11447 6.35445 2.10174 8.54722C1.48731 8.76336 0.955129 9.16491 0.578659 9.69643C0.20219 10.2279 0 10.8632 0 11.5146C0 12.1659 0.20219 12.8012 0.578659 13.3327C0.955129 13.8642 1.48731 14.2658 2.10174 14.4819C2.3177 16.5525 3.29593 18.4689 4.84624 19.8583C6.39656 21.2478 8.40817 22.0111 10.49 21.9999H10.7312C12.7443 21.9024 14.6578 21.0948 16.132 19.7205C17.6062 18.3461 18.5458 16.4938 18.7839 14.4924C19.4055 14.2885 19.9481 13.8958 20.3361 13.369C20.7242 12.8422 20.9383 12.2076 20.9486 11.5534C20.959 10.8993 20.7652 10.2581 20.3941 9.7193C20.023 9.18047 19.4931 8.77077 18.8782 8.54722ZM10.6787 19.9028C9.16087 19.9467 7.67835 19.4402 6.50473 18.4766C5.33112 17.513 4.54562 16.1575 4.29317 14.6602H16.6344C16.3785 16.0777 15.6508 17.367 14.5696 18.3188C13.4885 19.2705 12.1172 19.8288 10.6787 19.9028ZM17.8297 12.5631H3.15027C2.87218 12.5631 2.60548 12.4526 2.40885 12.256C2.21221 12.0594 2.10174 11.7927 2.10174 11.5146C2.10174 11.2365 2.21221 10.9698 2.40885 10.7731C2.60548 10.5765 2.87218 10.466 3.15027 10.466H5.24733C5.52542 10.466 5.79212 10.3556 5.98876 10.1589C6.18539 9.96229 6.29586 9.69559 6.29586 9.4175C6.29586 9.13941 6.18539 8.87272 5.98876 8.67608C5.79212 8.47944 5.52542 8.36897 5.24733 8.36897H4.1988C4.24574 7.28124 4.55663 6.22125 5.10465 5.28049C5.65267 4.33972 6.42136 3.54642 7.3444 2.96903V6.27191C7.3444 6.55 7.45487 6.81669 7.6515 7.01333C7.84814 7.20997 8.11484 7.32044 8.39293 7.32044C8.67101 7.32044 8.93771 7.20997 9.13435 7.01333C9.33099 6.81669 9.44146 6.55 9.44146 6.27191V2.17215C9.72606 2.1246 10.0131 2.0931 10.3013 2.07778H10.49C10.8414 2.08273 11.1919 2.11428 11.5385 2.17215V6.27191C11.5385 6.55 11.649 6.81669 11.8456 7.01333C12.0423 7.20997 12.309 7.32044 12.5871 7.32044C12.8651 7.32044 13.1318 7.20997 13.3285 7.01333C13.5251 6.81669 13.6356 6.55 13.6356 6.27191V2.93758C14.0804 3.19512 14.4953 3.50106 14.8729 3.8498C15.4774 4.43687 15.9578 5.13941 16.2856 5.91572C16.6135 6.69203 16.782 7.52629 16.7812 8.36897H15.7326C15.4546 8.36897 15.1879 8.47944 14.9912 8.67608C14.7946 8.87272 14.6841 9.13941 14.6841 9.4175C14.6841 9.69559 14.7946 9.96229 14.9912 10.1589C15.1879 10.3556 15.4546 10.466 15.7326 10.466H17.8297C18.1078 10.466 18.3745 10.5765 18.5711 10.7731C18.7678 10.9698 18.8782 11.2365 18.8782 11.5146C18.8782 11.7927 18.7678 12.0594 18.5711 12.256C18.3745 12.4526 18.1078 12.5631 17.8297 12.5631Z" fill="url(#paint0_linear_421_302)"/>
<defs>
<linearGradient id="paint0_linear_421_302" x1="10.4745" y1="-0.75694" x2="10.4745" y2="22.7569" gradientUnits="userSpaceOnUse">
<stop stop-color="#8B2AB2"/>
<stop offset="1" stop-color="#9146FF"/>
</linearGradient>
</defs>
</svg>
