<svg width="16" height="22" viewBox="0 0 16 22" fill="none" xmlns="http://www.w3.org/2000/svg">
<path d="M12.9838 1.82118C12.0716 1.06481 11.0033 0.523288 9.85704 0.236119C8.71075 -0.051049 7.51532 -0.0766175 6.35798 0.16128C4.81695 0.475083 3.40312 1.24329 2.29586 2.36843C1.18861 3.49357 0.437835 4.92493 0.138807 6.48091C-0.0795613 7.64756 -0.0398803 8.84842 0.25502 9.99784C0.54992 11.1473 1.09277 12.2169 1.84486 13.1305C2.54284 13.9245 2.94292 14.9399 2.97562 16.0004V19.0002C2.97562 19.7958 3.28913 20.5588 3.84718 21.1214C4.40523 21.6839 5.1621 22 5.9513 22H9.91888C10.7081 22 11.465 21.6839 12.023 21.1214C12.581 20.5588 12.8946 19.7958 12.8946 19.0002V16.1903C12.9278 15.0196 13.3545 13.8949 14.1047 13.0005C15.419 11.3614 16.0386 9.26557 15.8287 7.1685C15.6189 5.07142 14.5965 3.14259 12.9838 1.80118V1.82118ZM10.9108 19.0002C10.9108 19.2654 10.8063 19.5197 10.6202 19.7072C10.4342 19.8948 10.1819 20.0001 9.91888 20.0001H5.9513C5.68824 20.0001 5.43594 19.8948 5.24993 19.7072C5.06391 19.5197 4.95941 19.2654 4.95941 19.0002V18.0002H10.9108V19.0002ZM12.5672 11.7606C11.5699 12.9531 10.988 14.4425 10.9108 16.0004H8.92698V13.0005C8.92698 12.7353 8.82248 12.481 8.63646 12.2935C8.45045 12.1059 8.19816 12.0006 7.93509 12.0006C7.67202 12.0006 7.41973 12.1059 7.23372 12.2935C7.0477 12.481 6.9432 12.7353 6.9432 13.0005V16.0004H4.95941C4.93324 14.4685 4.37116 12.9953 3.37238 11.8406C2.71341 11.0446 2.27028 10.0901 2.0862 9.07011C1.90213 8.05009 1.98338 6.99939 2.32205 6.02047C2.66072 5.04154 3.24524 4.16779 4.01862 3.48441C4.792 2.80103 5.72784 2.33135 6.7349 2.12116C7.60038 1.94152 8.49468 1.95842 9.35287 2.17063C10.2111 2.38285 11.0116 2.78505 11.6964 3.34805C12.3812 3.91104 12.933 4.6207 13.3118 5.42549C13.6906 6.23028 13.8869 7.11002 13.8864 8.00082C13.8938 9.3706 13.4273 10.7001 12.5672 11.7606Z" fill="black"/>
<path d="M12.9838 1.82118C12.0716 1.06481 11.0033 0.523288 9.85704 0.236119C8.71075 -0.051049 7.51532 -0.0766175 6.35798 0.16128C4.81695 0.475083 3.40312 1.24329 2.29586 2.36843C1.18861 3.49357 0.437835 4.92493 0.138807 6.48091C-0.0795613 7.64756 -0.0398803 8.84842 0.25502 9.99784C0.54992 11.1473 1.09277 12.2169 1.84486 13.1305C2.54284 13.9245 2.94292 14.9399 2.97562 16.0004V19.0002C2.97562 19.7958 3.28913 20.5588 3.84718 21.1214C4.40523 21.6839 5.1621 22 5.9513 22H9.91888C10.7081 22 11.465 21.6839 12.023 21.1214C12.581 20.5588 12.8946 19.7958 12.8946 19.0002V16.1903C12.9278 15.0196 13.3545 13.8949 14.1047 13.0005C15.419 11.3614 16.0386 9.26557 15.8287 7.1685C15.6189 5.07142 14.5965 3.14259 12.9838 1.80118V1.82118ZM10.9108 19.0002C10.9108 19.2654 10.8063 19.5197 10.6202 19.7072C10.4342 19.8948 10.1819 20.0001 9.91888 20.0001H5.9513C5.68824 20.0001 5.43594 19.8948 5.24993 19.7072C5.06391 19.5197 4.95941 19.2654 4.95941 19.0002V18.0002H10.9108V19.0002ZM12.5672 11.7606C11.5699 12.9531 10.988 14.4425 10.9108 16.0004H8.92698V13.0005C8.92698 12.7353 8.82248 12.481 8.63646 12.2935C8.45045 12.1059 8.19816 12.0006 7.93509 12.0006C7.67202 12.0006 7.41973 12.1059 7.23372 12.2935C7.0477 12.481 6.9432 12.7353 6.9432 13.0005V16.0004H4.95941C4.93324 14.4685 4.37116 12.9953 3.37238 11.8406C2.71341 11.0446 2.27028 10.0901 2.0862 9.07011C1.90213 8.05009 1.98338 6.99939 2.32205 6.02047C2.66072 5.04154 3.24524 4.16779 4.01862 3.48441C4.792 2.80103 5.72784 2.33135 6.7349 2.12116C7.60038 1.94152 8.49468 1.95842 9.35287 2.17063C10.2111 2.38285 11.0116 2.78505 11.6964 3.34805C12.3812 3.91104 12.933 4.6207 13.3118 5.42549C13.6906 6.23028 13.8869 7.11002 13.8864 8.00082C13.8938 9.3706 13.4273 10.7001 12.5672 11.7606Z" fill="url(#paint0_linear_421_297)"/>
<defs>
<linearGradient id="paint0_linear_421_297" x1="7.93443" y1="-0.75694" x2="7.93443" y2="22.7569" gradientUnits="userSpaceOnUse">
<stop stop-color="#8B2AB2"/>
<stop offset="1" stop-color="#9146FF"/>
</linearGradient>
</defs>
</svg>
