<svg width="30" height="22" viewBox="0 0 30 22" fill="none" xmlns="http://www.w3.org/2000/svg">
<path d="M28.3823 7.75251L26.997 6.99246L14.5285 0.0829145H14.3761C14.2911 0.0470937 14.203 0.019333 14.1129 0H13.8496H13.6003C13.5056 0.0193457 13.4129 0.0470943 13.3232 0.0829145H13.1708L0.702319 6.99246C0.489111 7.11299 0.31177 7.28777 0.188389 7.49898C0.0650067 7.71019 0 7.95027 0 8.19472C0 8.43918 0.0650067 8.67925 0.188389 8.89046C0.31177 9.10167 0.489111 9.27646 0.702319 9.39699L4.15193 11.304V17.8543C4.15193 18.9538 4.58981 20.0083 5.36924 20.7857C6.14867 21.5632 7.20581 22 8.30809 22H19.3912C20.4935 22 21.5506 21.5632 22.33 20.7857C23.1095 20.0083 23.5473 18.9538 23.5473 17.8543V11.304L26.3181 9.75628V13.7085C26.3181 14.075 26.4641 14.4265 26.7239 14.6857C26.9837 14.9449 27.3361 15.0905 27.7035 15.0905C28.0709 15.0905 28.4233 14.9449 28.6831 14.6857C28.9429 14.4265 29.0889 14.075 29.0889 13.7085V8.95477C29.0885 8.7099 29.0228 8.46954 28.8987 8.2583C28.7745 8.04705 28.5963 7.8725 28.3823 7.75251ZM20.7766 17.8543C20.7766 18.2208 20.6306 18.5723 20.3708 18.8314C20.111 19.0906 19.7586 19.2362 19.3912 19.2362H8.30809C7.94066 19.2362 7.58829 19.0906 7.32848 18.8314C7.06867 18.5723 6.92271 18.2208 6.92271 17.8543V12.8379L13.1708 16.2927L13.3786 16.3756H13.5033C13.6183 16.3901 13.7346 16.3901 13.8496 16.3756C13.9646 16.3901 14.081 16.3901 14.196 16.3756H14.3207C14.3942 16.3602 14.4645 16.3321 14.5285 16.2927L20.7766 12.8379V17.8543ZM13.8496 13.5151L4.23505 8.1809L13.8496 2.84673L23.4642 8.1809L13.8496 13.5151Z" fill="black"/>
<path d="M28.3823 7.75251L26.997 6.99246L14.5285 0.0829145H14.3761C14.2911 0.0470937 14.203 0.019333 14.1129 0H13.8496H13.6003C13.5056 0.0193457 13.4129 0.0470943 13.3232 0.0829145H13.1708L0.702319 6.99246C0.489111 7.11299 0.31177 7.28777 0.188389 7.49898C0.0650067 7.71019 0 7.95027 0 8.19472C0 8.43918 0.0650067 8.67925 0.188389 8.89046C0.31177 9.10167 0.489111 9.27646 0.702319 9.39699L4.15193 11.304V17.8543C4.15193 18.9538 4.58981 20.0083 5.36924 20.7857C6.14867 21.5632 7.20581 22 8.30809 22H19.3912C20.4935 22 21.5506 21.5632 22.33 20.7857C23.1095 20.0083 23.5473 18.9538 23.5473 17.8543V11.304L26.3181 9.75628V13.7085C26.3181 14.075 26.4641 14.4265 26.7239 14.6857C26.9837 14.9449 27.3361 15.0905 27.7035 15.0905C28.0709 15.0905 28.4233 14.9449 28.6831 14.6857C28.9429 14.4265 29.0889 14.075 29.0889 13.7085V8.95477C29.0885 8.7099 29.0228 8.46954 28.8987 8.2583C28.7745 8.04705 28.5963 7.8725 28.3823 7.75251ZM20.7766 17.8543C20.7766 18.2208 20.6306 18.5723 20.3708 18.8314C20.111 19.0906 19.7586 19.2362 19.3912 19.2362H8.30809C7.94066 19.2362 7.58829 19.0906 7.32848 18.8314C7.06867 18.5723 6.92271 18.2208 6.92271 17.8543V12.8379L13.1708 16.2927L13.3786 16.3756H13.5033C13.6183 16.3901 13.7346 16.3901 13.8496 16.3756C13.9646 16.3901 14.081 16.3901 14.196 16.3756H14.3207C14.3942 16.3602 14.4645 16.3321 14.5285 16.2927L20.7766 12.8379V17.8543ZM13.8496 13.5151L4.23505 8.1809L13.8496 2.84673L23.4642 8.1809L13.8496 13.5151Z" fill="url(#paint0_linear_421_301)"/>
<defs>
<linearGradient id="paint0_linear_421_301" x1="14.5444" y1="-0.75694" x2="14.5444" y2="22.7569" gradientUnits="userSpaceOnUse">
<stop stop-color="#8B2AB2"/>
<stop offset="1" stop-color="#9146FF"/>
</linearGradient>
</defs>
</svg>
