<svg width="22" height="22" viewBox="0 0 22 22" fill="none" xmlns="http://www.w3.org/2000/svg">
<path d="M16.5658 22H3.31315C2.43445 22 1.59174 21.6509 0.970399 21.0296C0.349063 20.4083 0 19.5656 0 18.6869V7.64302C0 6.76432 0.349063 5.9216 0.970399 5.30027C1.59174 4.67893 2.43445 4.32987 3.31315 4.32987H4.41753C4.43611 3.39406 4.75145 2.48833 5.31806 1.74332C5.88468 0.998318 6.67329 0.452541 7.57015 0.184711C8.46701 -0.0831177 9.42576 -0.0591554 10.3081 0.253142C11.1905 0.56544 11.9508 1.14993 12.4795 1.92231C12.9748 2.62818 13.2443 3.46763 13.2526 4.32987H16.5658C16.8587 4.32987 17.1396 4.44622 17.3467 4.65333C17.5538 4.86045 17.6701 5.14135 17.6701 5.43425V8.7474C18.6059 8.76597 19.5117 9.08131 20.2567 9.64793C21.0017 10.2145 21.5475 11.0032 21.8153 11.9C22.0831 12.7969 22.0592 13.7556 21.7469 14.638C21.4346 15.5203 20.8501 16.2807 20.0777 16.8094C19.3718 17.3046 18.5324 17.5742 17.6701 17.5825V20.8956C17.6701 21.1885 17.5538 21.4694 17.3467 21.6765C17.1396 21.8836 16.8587 22 16.5658 22ZM3.31315 6.53863C3.02025 6.53863 2.73935 6.65499 2.53223 6.8621C2.32512 7.06921 2.20877 7.35012 2.20877 7.64302V18.6869C2.20877 18.9798 2.32512 19.2607 2.53223 19.4678C2.73935 19.6749 3.02025 19.7912 3.31315 19.7912H15.4614V16.2793C15.4604 16.1022 15.5021 15.9275 15.5828 15.7699C15.6635 15.6123 15.781 15.4764 15.9252 15.3737C16.069 15.2711 16.2354 15.2046 16.4102 15.1796C16.5851 15.1546 16.7634 15.1719 16.9302 15.2301C17.2449 15.3585 17.5877 15.4026 17.9247 15.3581C18.2617 15.3135 18.5813 15.1819 18.8518 14.9761C19.1211 14.8119 19.3521 14.5919 19.5293 14.3309C19.7065 14.0699 19.8257 13.774 19.8789 13.4631C19.9215 13.1495 19.8962 12.8305 19.8047 12.5275C19.7133 12.2245 19.5578 11.9448 19.3488 11.7071C19.0661 11.3638 18.6812 11.1197 18.2501 11.0105C17.8191 10.9012 17.3643 10.9325 16.9523 11.0997C16.7855 11.1579 16.6072 11.1753 16.4323 11.1503C16.2574 11.1253 16.0911 11.0587 15.9473 10.9562C15.803 10.8535 15.6856 10.7176 15.6049 10.56C15.5241 10.4024 15.4825 10.2277 15.4835 10.0506V6.53863H11.9494C11.7679 6.54892 11.5867 6.51424 11.4218 6.43767C11.2569 6.3611 11.1135 6.24502 11.0042 6.09971C10.895 5.95441 10.8233 5.78438 10.7955 5.60471C10.7677 5.42505 10.7848 5.24131 10.845 5.0698C10.9734 4.75506 11.0175 4.41228 10.973 4.07529C10.9285 3.7383 10.7968 3.41875 10.591 3.14818C10.428 2.87116 10.2047 2.63438 9.93768 2.45539C9.67068 2.2764 9.36683 2.15978 9.04864 2.11417C8.73044 2.06856 8.40607 2.09514 8.09954 2.19192C7.79301 2.28871 7.51219 2.45323 7.27789 2.67329C7.0603 2.8891 6.89 3.14784 6.77782 3.43303C6.66564 3.71823 6.61404 4.02365 6.6263 4.32987C6.62886 4.58318 6.67751 4.83391 6.76987 5.0698C6.82826 5.23681 6.84566 5.41539 6.82063 5.59053C6.7956 5.76566 6.72886 5.93222 6.62603 6.07618C6.5232 6.22014 6.38729 6.33729 6.22974 6.41777C6.0722 6.49825 5.89762 6.5397 5.72071 6.53863H3.31315Z" fill="black"/>
<path d="M16.5658 22H3.31315C2.43445 22 1.59174 21.6509 0.970399 21.0296C0.349063 20.4083 0 19.5656 0 18.6869V7.64302C0 6.76432 0.349063 5.9216 0.970399 5.30027C1.59174 4.67893 2.43445 4.32987 3.31315 4.32987H4.41753C4.43611 3.39406 4.75145 2.48833 5.31806 1.74332C5.88468 0.998318 6.67329 0.452541 7.57015 0.184711C8.46701 -0.0831177 9.42576 -0.0591554 10.3081 0.253142C11.1905 0.56544 11.9508 1.14993 12.4795 1.92231C12.9748 2.62818 13.2443 3.46763 13.2526 4.32987H16.5658C16.8587 4.32987 17.1396 4.44622 17.3467 4.65333C17.5538 4.86045 17.6701 5.14135 17.6701 5.43425V8.7474C18.6059 8.76597 19.5117 9.08131 20.2567 9.64793C21.0017 10.2145 21.5475 11.0032 21.8153 11.9C22.0831 12.7969 22.0592 13.7556 21.7469 14.638C21.4346 15.5203 20.8501 16.2807 20.0777 16.8094C19.3718 17.3046 18.5324 17.5742 17.6701 17.5825V20.8956C17.6701 21.1885 17.5538 21.4694 17.3467 21.6765C17.1396 21.8836 16.8587 22 16.5658 22ZM3.31315 6.53863C3.02025 6.53863 2.73935 6.65499 2.53223 6.8621C2.32512 7.06921 2.20877 7.35012 2.20877 7.64302V18.6869C2.20877 18.9798 2.32512 19.2607 2.53223 19.4678C2.73935 19.6749 3.02025 19.7912 3.31315 19.7912H15.4614V16.2793C15.4604 16.1022 15.5021 15.9275 15.5828 15.7699C15.6635 15.6123 15.781 15.4764 15.9252 15.3737C16.069 15.2711 16.2354 15.2046 16.4102 15.1796C16.5851 15.1546 16.7634 15.1719 16.9302 15.2301C17.2449 15.3585 17.5877 15.4026 17.9247 15.3581C18.2617 15.3135 18.5813 15.1819 18.8518 14.9761C19.1211 14.8119 19.3521 14.5919 19.5293 14.3309C19.7065 14.0699 19.8257 13.774 19.8789 13.4631C19.9215 13.1495 19.8962 12.8305 19.8047 12.5275C19.7133 12.2245 19.5578 11.9448 19.3488 11.7071C19.0661 11.3638 18.6812 11.1197 18.2501 11.0105C17.8191 10.9012 17.3643 10.9325 16.9523 11.0997C16.7855 11.1579 16.6072 11.1753 16.4323 11.1503C16.2574 11.1253 16.0911 11.0587 15.9473 10.9562C15.803 10.8535 15.6856 10.7176 15.6049 10.56C15.5241 10.4024 15.4825 10.2277 15.4835 10.0506V6.53863H11.9494C11.7679 6.54892 11.5867 6.51424 11.4218 6.43767C11.2569 6.3611 11.1135 6.24502 11.0042 6.09971C10.895 5.95441 10.8233 5.78438 10.7955 5.60471C10.7677 5.42505 10.7848 5.24131 10.845 5.0698C10.9734 4.75506 11.0175 4.41228 10.973 4.07529C10.9285 3.7383 10.7968 3.41875 10.591 3.14818C10.428 2.87116 10.2047 2.63438 9.93768 2.45539C9.67068 2.2764 9.36683 2.15978 9.04864 2.11417C8.73044 2.06856 8.40607 2.09514 8.09954 2.19192C7.79301 2.28871 7.51219 2.45323 7.27789 2.67329C7.0603 2.8891 6.89 3.14784 6.77782 3.43303C6.66564 3.71823 6.61404 4.02365 6.6263 4.32987C6.62886 4.58318 6.67751 4.83391 6.76987 5.0698C6.82826 5.23681 6.84566 5.41539 6.82063 5.59053C6.7956 5.76566 6.72886 5.93222 6.62603 6.07618C6.5232 6.22014 6.38729 6.33729 6.22974 6.41777C6.0722 6.49825 5.89762 6.5397 5.72071 6.53863H3.31315Z" fill="url(#paint0_linear_421_305)"/>
<defs>
<linearGradient id="paint0_linear_421_305" x1="11" y1="-0.75694" x2="11" y2="22.7569" gradientUnits="userSpaceOnUse">
<stop stop-color="#8B2AB2"/>
<stop offset="1" stop-color="#9146FF"/>
</linearGradient>
</defs>
</svg>
