<svg width="18" height="22" viewBox="0 0 18 22" fill="none" xmlns="http://www.w3.org/2000/svg">
<path d="M16.5 5.5H13.2V4.4C13.2 3.23305 12.7364 2.11389 11.9113 1.28873C11.0861 0.46357 9.96695 0 8.8 0C7.63305 0 6.51389 0.46357 5.68873 1.28873C4.86357 2.11389 4.4 3.23305 4.4 4.4V5.5H1.1C0.808262 5.5 0.528473 5.61589 0.322183 5.82218C0.115893 6.02847 0 6.30826 0 6.6V18.7C0 19.5752 0.347678 20.4146 0.966548 21.0335C1.58542 21.6523 2.42479 22 3.3 22H14.3C15.1752 22 16.0146 21.6523 16.6335 21.0335C17.2523 20.4146 17.6 19.5752 17.6 18.7V6.6C17.6 6.30826 17.4841 6.02847 17.2778 5.82218C17.0715 5.61589 16.7917 5.5 16.5 5.5ZM6.6 4.4C6.6 3.81652 6.83179 3.25695 7.24437 2.84437C7.65695 2.43179 8.21652 2.2 8.8 2.2C9.38348 2.2 9.94306 2.43179 10.3556 2.84437C10.7682 3.25695 11 3.81652 11 4.4V5.5H6.6V4.4ZM15.4 18.7C15.4 18.9917 15.2841 19.2715 15.0778 19.4778C14.8715 19.6841 14.5917 19.8 14.3 19.8H3.3C3.00826 19.8 2.72847 19.6841 2.52218 19.4778C2.31589 19.2715 2.2 18.9917 2.2 18.7V7.7H4.4V8.8C4.4 9.09174 4.51589 9.37153 4.72218 9.57782C4.92847 9.78411 5.20826 9.9 5.5 9.9C5.79174 9.9 6.07153 9.78411 6.27782 9.57782C6.48411 9.37153 6.6 9.09174 6.6 8.8V7.7H11V8.8C11 9.09174 11.1159 9.37153 11.3222 9.57782C11.5285 9.78411 11.8083 9.9 12.1 9.9C12.3917 9.9 12.6715 9.78411 12.8778 9.57782C13.0841 9.37153 13.2 9.09174 13.2 8.8V7.7H15.4V18.7Z" fill="black"/>
<path d="M16.5 5.5H13.2V4.4C13.2 3.23305 12.7364 2.11389 11.9113 1.28873C11.0861 0.46357 9.96695 0 8.8 0C7.63305 0 6.51389 0.46357 5.68873 1.28873C4.86357 2.11389 4.4 3.23305 4.4 4.4V5.5H1.1C0.808262 5.5 0.528473 5.61589 0.322183 5.82218C0.115893 6.02847 0 6.30826 0 6.6V18.7C0 19.5752 0.347678 20.4146 0.966548 21.0335C1.58542 21.6523 2.42479 22 3.3 22H14.3C15.1752 22 16.0146 21.6523 16.6335 21.0335C17.2523 20.4146 17.6 19.5752 17.6 18.7V6.6C17.6 6.30826 17.4841 6.02847 17.2778 5.82218C17.0715 5.61589 16.7917 5.5 16.5 5.5ZM6.6 4.4C6.6 3.81652 6.83179 3.25695 7.24437 2.84437C7.65695 2.43179 8.21652 2.2 8.8 2.2C9.38348 2.2 9.94306 2.43179 10.3556 2.84437C10.7682 3.25695 11 3.81652 11 4.4V5.5H6.6V4.4ZM15.4 18.7C15.4 18.9917 15.2841 19.2715 15.0778 19.4778C14.8715 19.6841 14.5917 19.8 14.3 19.8H3.3C3.00826 19.8 2.72847 19.6841 2.52218 19.4778C2.31589 19.2715 2.2 18.9917 2.2 18.7V7.7H4.4V8.8C4.4 9.09174 4.51589 9.37153 4.72218 9.57782C4.92847 9.78411 5.20826 9.9 5.5 9.9C5.79174 9.9 6.07153 9.78411 6.27782 9.57782C6.48411 9.37153 6.6 9.09174 6.6 8.8V7.7H11V8.8C11 9.09174 11.1159 9.37153 11.3222 9.57782C11.5285 9.78411 11.8083 9.9 12.1 9.9C12.3917 9.9 12.6715 9.78411 12.8778 9.57782C13.0841 9.37153 13.2 9.09174 13.2 8.8V7.7H15.4V18.7Z" fill="url(#paint0_linear_421_298)"/>
<defs>
<linearGradient id="paint0_linear_421_298" x1="8.8" y1="-0.75694" x2="8.8" y2="22.7569" gradientUnits="userSpaceOnUse">
<stop stop-color="#8B2AB2"/>
<stop offset="1" stop-color="#9146FF"/>
</linearGradient>
</defs>
</svg>
