<svg width="200" height="200" viewBox="0 0 200 200" fill="none" xmlns="http://www.w3.org/2000/svg">
<rect width="200" height="200" rx="100" fill="black"/>
<rect width="200" height="200" rx="100" fill="url(#paint0_linear_421_311)"/>
<path fill-rule="evenodd" clip-rule="evenodd" d="M56.3124 135.284C54.3511 134.704 52.5616 133.672 51.0948 132.274C49.628 130.877 48.527 129.156 47.8847 127.256C44.2146 117.437 43.1272 76.4347 50.1956 68.3404C52.5481 65.7072 55.8695 64.0861 59.4389 63.8288C78.4012 61.8384 136.987 62.1038 143.716 64.4923C145.608 65.0916 147.337 66.1013 148.773 67.4456C150.209 68.7899 151.315 70.4341 152.008 72.2548C156.018 82.4058 156.154 119.295 151.464 129.048C150.22 131.586 148.137 133.643 145.551 134.886C138.483 138.336 65.6917 138.27 56.3124 135.284ZM86.4211 116.044L120.404 98.7935L86.4211 81.4106V116.044Z" fill="white"/>
<defs>
<linearGradient id="paint0_linear_421_311" x1="207.5" y1="-1.05333e-06" x2="6.18398e-06" y2="200" gradientUnits="userSpaceOnUse">
<stop stop-color="#8B2AB2"/>
<stop offset="1" stop-color="#9146FF"/>
</linearGradient>
</defs>
</svg>
